<svg id="Layer_1" data-name="Layer 1" xmlns="http://www.w3.org/2000/svg" viewBox="0 0 1080 1080"><defs><style>.cls-1{fill:#caffbf;}</style></defs><polygon class="cls-1" points="805.08 657.17 776.36 336.57 832.8 252.88 715.11 225.91 733.78 200.31 661.56 169.89 561.35 171.43 472.44 258.66 491.54 260.5 377.46 367.47 451.54 367.12 466.02 502.4 280.14 503.56 299.55 568.5 475.49 561.92 493.37 732.39 454.59 784.22 478.62 874.83 697.92 877.03 796.65 854.83 847.47 761.89 845.4 659.58 805.08 657.17"/><polygon class="cls-1" points="367.8 744.73 536.55 743.9 485.12 801.14 340.64 808.91 367.8 744.73"/><path class="cls-1" d="M829.62,719.5s43.63-7.16,60.26-1.51,24.43,12.78,24.17,25.62-8.55,22.47-8.55,22.47l-1.22,54.61s-5,5.36-16.23,4.7-15.12-5-15.12-5l-1.09-41.72L811.9,775Z"/><circle class="cls-1" cx="714.4" cy="872.65" r="79.52"/><circle class="cls-1" cx="523.13" cy="877.48" r="79.52"/><circle class="cls-1" cx="285.55" cy="846.87" r="68.7" transform="translate(-302.35 173.74) rotate(-22.5)"/><circle class="cls-1" cx="598.91" cy="158.51" r="34.8"/><circle class="cls-1" cx="245.07" cy="375.19" r="34.8"/><path class="cls-1" d="M328,859.6s31.35,1.67,48.19-25.91S385,766.26,385,766.26s-9.81-65-13.13-101.19.21-113.47.21-113.47l-6-41.51S353.4,460,339.69,437.17s-45.55-52.12-92.44-48.06-68.06,37.06-72,45.73-21,63.87-7,116.84S194.94,665.74,202.69,708s15.62,76.52,20,89.65,31.8,52.66,31.8,52.66Z"/></svg>