<svg id="Layer_1" data-name="Layer 1" xmlns="http://www.w3.org/2000/svg" viewBox="0 0 1080 1080"><defs><style>.cls-1{fill:#ffd6a5;}</style></defs><path class="cls-1" d="M870.92,145.62s54.19-1.11,68,1.53c11.47,2.19,78.77,25.8,101.55,33.84a30.16,30.16,0,0,1,17.23,15.1c2.08,4.28,3.16,9.24,1.31,14.13-5,13-21.43,23.5-28.51,28.75s-54.83,63.76-60.76,86.84-2.19,164.78-42.48,235.83-77.52,143-162,185.91-53.66,80.82-229.89,72.19-279,20-357-90.86S101.57,567,103.22,527.55s27-202.88,10.64-231.12-34.6-44.12-42.93-52-17.62-42.18-5.06-49.65,125.51-41.27,145.59-39.26c17.25,1.72,38.3,28.87,49,42.85,2.34,3.06,4.55,6.2,6.67,9.41C275.59,220.6,296,245.38,288.79,255c-8,10.67-32,16-44,32.77s-49.29,57.71-1.41,96.71,91.31,68.61,243.11,62.74,223.35-22,278.63-71.08,56.2-90.05,56.74-114-6.41-59-6.41-59-31-34-22.18-46.17S870.92,145.62,870.92,145.62Z"/><path class="cls-1" d="M638.54,465.35s5.93-91.16-25.09-122.81S548,292.3,547.53,279.92s10.91-16.79,11.24-24.52-18.17-11.24-18.17-11.24l.36-15.47-49.49-1.11-.24,10.82s-22.51,2.58-21.94,11.87,10.07,16.88,5.61,25.66-21.62,14.6-42.45,29.23-59.65,54-63.4,83.3S367.28,467,367.28,467Z"/><path class="cls-1" d="M184.93,703.49l-49.37,1.79s-2,11-14.75,11.28S99.65,703.31,72.91,705s-45.35,4.19-49.22,21.52S15.24,767,29.56,774.83s27,11.63,41.49,12.53S121.2,776.9,121.2,776.9l117.24-.24Z"/><path class="cls-1" d="M650.86,775.16,617.94,895.91l-192,5.72s-42.8-159.59-55-169.16S650.86,775.16,650.86,775.16Z"/><circle class="cls-1" cx="340.36" cy="870.28" r="120.48"/><circle class="cls-1" cx="699.54" cy="869.89" r="120.48"/><circle class="cls-1" cx="165.63" cy="145.86" r="39.33"/><circle class="cls-1" cx="515.39" cy="198.62" r="39.33"/><circle class="cls-1" cx="929.55" cy="132.76" r="42.81"/></svg>