<svg id="Layer_1" data-name="Layer 1" xmlns="http://www.w3.org/2000/svg" viewBox="0 0 1080 1080"><defs><style>.cls-1{fill:#fdffb6;}</style></defs><path class="cls-1" d="M884.65,660.86s-.6,27.5-7.59,41.26-33.66,55.53-33.66,55.53l-96.5,56.82L583,820.13,476.35,792.52l-18.57-55.18,3.71-78.83,419.62,2.19S884.46,665.07,884.65,660.86Z"/><polygon class="cls-1" points="423.3 616.49 392.55 670.06 365.79 668.81 363.47 613.65 370.84 592.14 306.49 535.51 217.8 531.3 153.99 642.57 158.12 794.43 345.34 803.28 366.37 761.23 429.98 758.58 481.13 676.73 423.3 616.49"/><path class="cls-1" d="M164.64,671.29s-9.42,20-19.22,18.84-19.22-11.47-45.3-12-42,7.89-43.33,21.21-.68,44.4,26.68,47.81,34.15-6.14,45.48-7,53.58,1.11,53.58,1.11Z"/><path class="cls-1" d="M911.28,601.45l62.28,2.95s31.37-3.28,42,6.22S1023.8,784,1023.8,784s-5.35,12.45-16.41,11.39-16.9-11.91-16.9-11.91l-.09-121.69-126.58,3Z"/><circle class="cls-1" cx="799.33" cy="795.03" r="78.91"/><circle class="cls-1" cx="514.35" cy="795.8" r="78.91"/><circle class="cls-1" cx="303.59" cy="801.29" r="29.65"/><circle class="cls-1" cx="202.4" cy="796.51" r="29.65"/><circle class="cls-1" cx="253.93" cy="522.48" r="35.82"/><circle class="cls-1" cx="655.03" cy="249.33" r="43.33"/><ellipse class="cls-1" cx="652.67" cy="523.83" rx="254.15" ry="283.26" transform="translate(98.62 1151.05) rotate(-87.29)"/></svg>